<?xml version="1.0" standalone="no"?>
<!DOCTYPE svg PUBLIC "-//W3C//DTD SVG 20010904//EN"
 "http://www.w3.org/TR/2001/REC-SVG-20010904/DTD/svg10.dtd">
<svg version="1.0" xmlns="http://www.w3.org/2000/svg"
 width="192.000000pt" height="192.000000pt" viewBox="0 0 192.000000 192.000000"
 preserveAspectRatio="xMidYMid meet">
<metadata>
Created by potrace 1.11, written by Peter Selinger 2001-2013
</metadata>
<g transform="translate(0.000000,192.000000) scale(0.100000,-0.100000)"
fill="#000000" stroke="none">
<path d="M0 960 l0 -960 960 0 960 0 0 960 0 960 -960 0 -960 0 0 -960z m909
786 c17 -20 2 -46 -51 -89 -46 -36 -160 -108 -164 -104 -13 13 19 55 72 93 67
47 100 86 89 104 -10 16 41 12 54 -4z m-114 -6 c9 -15 -10 -43 -44 -63 -36
-21 -40 -11 -11 26 11 14 20 30 20 36 0 14 27 15 35 1z m323 -15 c17 -5 22
-14 22 -41 0 -30 -9 -45 -57 -93 -62 -61 -208 -162 -335 -231 l-78 -42 0 34
c0 31 6 37 73 78 237 145 333 227 325 281 -5 31 -7 30 50 14z m225 -73 c70
-66 7 -168 -193 -314 -79 -58 -112 -78 -129 -78 -14 0 -41 29 -41 45 0 8 37
40 83 71 118 83 224 190 232 237 5 27 3 44 -10 63 -16 25 -16 25 7 14 13 -7
35 -24 51 -38z m-132 -22 c12 -7 19 -21 19 -39 0 -50 -120 -144 -399 -312
-150 -91 -161 -93 -161 -39 0 22 19 37 137 110 165 101 273 181 331 244 48 51
46 50 73 36z m255 -52 c52 -101 -65 -241 -368 -442 -73 -49 -89 -56 -106 -47
-12 6 -24 21 -28 33 -8 26 -7 26 154 137 218 150 311 256 299 343 -5 39 -5 39
15 21 11 -10 26 -30 34 -45z m-542 37 c3 -10 -12 -28 -47 -53 -57 -42 -187
-122 -198 -122 -3 0 -4 13 0 30 5 24 25 43 101 94 96 65 133 78 144 51z m637
-143 c19 -56 -2 -102 -83 -188 -99 -104 -282 -237 -549 -399 -135 -83 -126
-80 -144 -46 -8 17 -15 34 -15 40 0 5 87 63 193 129 399 249 541 378 541 493
l0 49 23 -22 c12 -11 28 -37 34 -56z m76 -79 c18 -45 16 -70 -11 -128 -48
-105 -212 -246 -480 -414 -148 -92 -171 -98 -189 -49 -10 27 18 51 162 143
331 212 494 374 479 476 -4 24 -2 27 10 16 8 -6 21 -26 29 -44z m66 -164 c-1
-68 -43 -136 -137 -227 -75 -71 -217 -179 -301 -227 -27 -16 -38 -18 -52 -9
-34 21 -28 51 17 81 290 198 410 315 442 429 9 34 11 36 21 18 6 -10 10 -40
10 -65z m-745 39 c30 -30 -3 -77 -40 -57 -18 9 -25 49 -11 62 10 11 38 8 51
-5z m817 -346 c-26 -68 -104 -153 -220 -239 -111 -84 -335 -223 -359 -223 -19
0 -39 27 -33 43 3 8 61 48 129 90 250 154 409 292 464 403 l29 59 3 -44 c2
-25 -4 -64 -13 -89z m-175 -48 c0 -14 -16 -36 -42 -59 -59 -50 -240 -169 -381
-251 l-118 -68 -30 30 -29 29 113 70 c157 97 306 196 383 255 63 49 67 50 85
34 11 -9 19 -27 19 -40z m150 -105 c0 -25 -149 -179 -173 -179 -20 0 -23 38
-4 62 34 41 159 148 167 143 6 -3 10 -15 10 -26z m21 -59 c-14 -62 -74 -142
-160 -214 -124 -103 -150 -115 -137 -63 3 14 37 48 80 81 87 67 181 164 204
212 20 43 25 38 13 -16z m-79 -222 c-23 -37 -104 -117 -172 -170 -34 -26 -51
-33 -69 -29 -22 6 -16 13 65 78 49 39 112 92 139 116 28 25 52 43 54 41 2 -1
-6 -18 -17 -36z m-558 -33 c4 -13 2 -14 -14 -5 -23 13 -26 20 -6 20 8 0 16 -7
20 -15z m303 -62 c5 -13 -31 -53 -47 -53 -14 0 -12 44 2 58 15 15 40 12 45 -5z"/>
</g>
</svg>
